<svg fill="#ffd500" height="30px" width="30px" version="1.1" id="Layer_1" xmlns="http://www.w3.org/2000/svg" xmlns:xlink="http://www.w3.org/1999/xlink" viewBox="-51.2 -51.2 614.40 614.40" xml:space="preserve" stroke="#ffd500" transform="rotate(0)matrix(-1, 0, 0, 1, 0, 0)"><g id="SVGRepo_bgCarrier" stroke-width="0" transform="translate(0,0), scale(1)"></g><g id="SVGRepo_tracerCarrier" stroke-linecap="round" stroke-linejoin="round" stroke="#CCCCCC" stroke-width="1"></g><g id="SVGRepo_iconCarrier"> <g> <g> <path d="M441.773,240.915L207.106,6.248C203.106,2.248,197.679,0,192.021,0H85.355C66.349,0,56.831,22.979,70.27,36.418 L289.852,256L70.27,475.582C56.831,489.021,66.349,512,85.355,512h106.667c5.658,0,11.084-2.248,15.085-6.248l234.667-234.667 C450.104,262.754,450.104,249.246,441.773,240.915z M183.185,469.333h-46.327l198.248-198.248c8.331-8.331,8.331-21.839,0-30.17 L136.858,42.667h46.327L396.518,256L183.185,469.333z"></path> </g> </g> </g></svg>